<?xml version="1.0" standalone="no"?><!DOCTYPE svg PUBLIC "-//W3C//DTD SVG 1.1//EN" "http://www.w3.org/Graphics/SVG/1.1/DTD/svg11.dtd"><svg t="1616174747230" class="icon" viewBox="0 0 1024 1024" version="1.1" xmlns="http://www.w3.org/2000/svg" p-id="17237" xmlns:xlink="http://www.w3.org/1999/xlink" width="200" height="200"><defs><style type="text/css"></style></defs><path d="M170.666667 353.578667l314.666666 135.253333v395.306667L208.682667 761.322667A64 64 0 0 1 170.666667 702.805333v-349.226666z m682.666666-8.170667v357.397333a64 64 0 0 1-38.016 58.496L549.333333 879.402667V485.482667L853.333333 345.386667zM537.984 139.52l277.333333 123.157333c9.642667 4.266667 17.856 10.773333 24.149334 18.709334l-324.757334 150.4-334.72-143.872c6.613333-10.922667 16.533333-19.84 28.693334-25.237334l277.333333-123.157333a64 64 0 0 1 51.968 0z" p-id="17238" fill="#ffffff"></path></svg>